<svg width="267" height="267" viewBox="0 0 267 267" fill="none" xmlns="http://www.w3.org/2000/svg">
<path d="M68.9553 68.7853C68.2238 68.0538 66.999 68.7784 67.2879 69.7717L68.758 74.8257C69.8384 78.5401 72.9297 81.3218 76.737 82.0057V82.0057L80.6461 82.8555L75.5473 84.5551L73.9789 85.2582C71.8134 86.229 70.0765 87.9567 69.0945 90.1172V90.1172C68.4263 91.5872 68.2157 93.2242 68.4901 94.8154L68.6983 96.023C68.7879 96.5428 69.4366 96.7314 69.791 96.3408L74.8575 90.7565C74.8865 90.7245 74.9225 90.6997 74.9627 90.6839V90.6839C76.6907 90.0057 78.5473 89.718 80.3995 89.8414L82.2054 89.9618C82.5219 89.9829 82.8301 90.0717 83.1093 90.222L87.1046 92.3733L83.4923 95.1443C80.2933 97.5983 77.6425 100.694 75.7101 104.233V104.233C73.9766 107.407 73.6052 111.149 74.6808 114.602L75.2763 116.514C75.874 118.433 77.35 119.953 79.2508 120.606V120.606C80.8293 121.149 82.5281 121.239 84.1551 120.866L89.8239 119.567L88.8216 116.486C86.9491 110.73 90.7205 104.677 96.7125 103.821V103.821C97.6915 103.681 98.6612 104.13 99.1881 104.966L103.074 111.137C103.725 112.172 103.89 113.441 103.526 114.608V114.608C102.781 116.99 101.636 119.227 100.139 121.224L98.3219 123.646L102.401 123.986V123.986C105.555 123.565 108.243 121.49 109.447 118.545L110.559 115.828L115.377 121.115C116.743 122.615 117.391 124.633 117.154 126.648L116.949 128.396C116.904 128.778 117.289 129.066 117.642 128.914L119.888 127.952C121.69 127.179 123.766 127.417 125.348 128.576L126.962 129.76C127.54 130.184 127.852 130.882 127.781 131.596V131.596C127.475 134.704 125.865 137.535 123.351 139.388L120.842 141.237L127.47 139.707L133.674 133.504L101.041 100.871L88.8384 88.6684L86.7646 86.5947L85.235 85.065L83.5354 83.3654L80.8502 80.6802L75.7905 75.6205L68.9553 68.7853Z" fill="url(#paint0_linear_300_8170)"/>
<path d="M70.3149 197.032C69.5835 197.764 68.3587 197.039 68.6476 196.046L70.1177 190.992C71.1981 187.277 74.2893 184.496 78.0967 183.812V183.812L82.0058 182.962L76.9069 181.262L75.3386 180.559C73.173 179.589 71.4362 177.861 70.4542 175.7V175.7C69.786 174.23 69.5754 172.593 69.8498 171.002L70.058 169.795C70.1476 169.275 70.7963 169.086 71.1507 169.477L76.2172 175.061C76.2462 175.093 76.2822 175.118 76.3224 175.134V175.134C78.0504 175.812 79.907 176.1 81.7592 175.976L83.5651 175.856C83.8815 175.835 84.1898 175.746 84.469 175.596L88.4642 173.444L84.852 170.673C81.653 168.219 79.0022 165.124 77.0698 161.585V161.585C75.3363 158.41 74.9648 154.669 76.0405 151.215L76.636 149.303C77.2337 147.384 78.7097 145.865 80.6105 145.211V145.211C82.1889 144.669 83.8878 144.579 85.5147 144.952L91.1836 146.251L90.1812 149.332C88.3088 155.088 92.0801 161.141 98.0722 161.997V161.997C99.0512 162.137 100.021 161.688 100.548 160.851L104.433 154.68C105.085 153.645 105.25 152.377 104.885 151.209V151.209C104.141 148.827 102.996 146.59 101.498 144.594L99.6816 142.172L103.761 141.832V141.832C106.914 142.252 109.602 144.328 110.807 147.272L111.919 149.99L116.736 144.702C118.102 143.203 118.751 141.184 118.514 139.17L118.223 136.701C118.216 136.639 118.278 136.592 118.336 136.615L120.816 137.618C121.708 137.978 122.702 137.996 123.606 137.667V137.667C125.123 137.115 126.428 136.098 127.334 134.761L127.678 134.253C127.709 134.207 127.733 134.156 127.748 134.103L128.32 132.059L133.589 133.589L102.401 164.946L90.198 177.149L88.1243 179.223L86.5947 180.753L84.8951 182.452L82.2099 185.137L77.1501 190.197L70.3149 197.032Z" fill="url(#paint1_linear_300_8170)"/>
<path d="M68.4454 69.2952C67.7139 68.5637 68.4385 67.3389 69.4318 67.6279L74.4858 69.0979C78.2002 70.1783 80.9819 73.2696 81.6658 77.0769V77.0769L82.5156 80.986L84.2152 75.8872L84.9183 74.3189C85.889 72.1533 87.6168 70.4165 89.7773 69.4344V69.4344C91.2473 68.7662 92.8843 68.5556 94.4755 68.83L95.6831 69.0382C96.2029 69.1278 96.3915 69.7765 96.0009 70.1309L90.4166 75.1974C90.3846 75.2264 90.3598 75.2624 90.344 75.3026V75.3026C89.6658 77.0306 89.3781 78.8872 89.5015 80.7394L89.6219 82.5453C89.643 82.8618 89.7318 83.17 89.8821 83.4492L92.0334 87.4445L94.8044 83.8322C97.2584 80.6332 100.354 77.9824 103.893 76.05V76.05C107.067 74.3165 110.809 73.9451 114.262 75.0207L116.174 75.6162C118.093 76.2139 119.613 77.6899 120.266 79.5907V79.5907C120.809 81.1692 120.899 82.868 120.526 84.495L119.227 90.1638L116.146 89.1615C110.39 87.289 104.337 91.0604 103.481 97.0524V97.0524C103.341 98.0314 103.79 99.0011 104.626 99.528L110.797 103.413C111.832 104.065 113.101 104.23 114.268 103.866V103.866C116.65 103.121 118.887 101.976 120.884 100.478L123.306 98.6618L123.646 102.741V102.741C123.225 105.895 121.15 108.583 118.205 109.787L115.488 110.899L120.775 115.716C122.275 117.083 124.293 117.731 126.308 117.494L128.056 117.288C128.438 117.244 128.726 117.629 128.574 117.982L127.612 120.228C126.839 122.03 127.077 124.106 128.236 125.687L129.42 127.301C129.844 127.88 130.542 128.192 131.256 128.121V128.121C134.364 127.815 137.196 126.205 139.048 123.691L140.897 121.182L139.367 127.81L133.164 134.014L100.531 101.381L88.3285 89.1783L86.2547 87.1045L84.7251 85.5749L83.0255 83.8753L80.3403 81.1901L75.2806 76.1304L68.4454 69.2952Z" fill="url(#paint2_linear_300_8170)"/>
<path d="M196.692 70.6548C197.424 69.9234 196.699 68.6986 195.706 68.9875L190.652 70.4576C186.938 71.538 184.156 74.6292 183.472 78.4366V78.4366L182.622 82.3457L180.923 77.2469L180.219 75.6785C179.249 73.5129 177.521 71.7761 175.36 70.7941V70.7941C173.89 70.1259 172.253 69.9153 170.662 70.1897L169.455 70.3979C168.935 70.4875 168.746 71.1362 169.137 71.4906L174.721 76.5571C174.753 76.5861 174.778 76.6221 174.794 76.6623V76.6623C175.472 78.3903 175.76 80.2469 175.636 82.0991L175.516 83.905C175.495 84.2214 175.406 84.5297 175.256 84.8089L173.104 88.8041L170.333 85.1919C167.879 81.9929 164.784 79.3421 161.245 77.4097V77.4097C158.071 75.6762 154.329 75.3047 150.875 76.3804L148.963 76.9759C147.044 77.5736 145.525 79.0496 144.871 80.9504V80.9504C144.329 82.5288 144.239 84.2277 144.612 85.8546L145.911 91.5235L148.992 90.5211C154.748 88.6487 160.801 92.4201 161.657 98.4121V98.4121C161.797 99.3911 161.348 100.361 160.511 100.888L154.34 104.773C153.305 105.425 152.037 105.59 150.869 105.225V105.225C148.488 104.481 146.25 103.335 144.254 101.838L141.832 100.022L141.492 104.101V104.101C141.912 107.254 143.988 109.942 146.933 111.147L149.65 112.259L144.362 117.076C142.863 118.442 140.845 119.091 138.83 118.854L136.361 118.563C136.299 118.556 136.252 118.618 136.275 118.676L137.278 121.156C137.638 122.048 137.656 123.041 137.327 123.946V123.946C136.775 125.463 135.758 126.768 134.421 127.674L133.913 128.018C133.867 128.049 133.816 128.073 133.763 128.088L131.719 128.66L133.249 133.929L164.606 102.741L176.809 90.5379L178.883 88.4642L180.413 86.9346L182.112 85.235L184.797 82.5498L189.857 77.49L196.692 70.6548Z" fill="url(#paint3_linear_300_8170)"/>
<path d="M197.84 198.01C198.571 198.741 199.796 198.016 199.507 197.023L198.037 191.969C196.957 188.255 193.865 185.473 190.058 184.789V184.789L186.149 183.939L191.248 182.24L192.816 181.537C194.982 180.566 196.718 178.838 197.7 176.678V176.678C198.369 175.208 198.579 173.571 198.305 171.979L198.097 170.772C198.007 170.252 197.358 170.063 197.004 170.454L191.937 176.038C191.908 176.07 191.872 176.095 191.832 176.111V176.111C190.104 176.789 188.248 177.077 186.395 176.953L184.589 176.833C184.273 176.812 183.965 176.723 183.686 176.573L179.69 174.422L183.303 171.651C186.502 169.197 189.152 166.101 191.085 162.562V162.562C192.818 159.388 193.19 155.646 192.114 152.192L191.519 150.281C190.921 148.362 189.445 146.842 187.544 146.189V146.189C185.966 145.646 184.267 145.556 182.64 145.929L176.971 147.228L177.973 150.309C179.846 156.065 176.074 162.118 170.082 162.974V162.974C169.103 163.114 168.134 162.665 167.607 161.828L163.721 155.657C163.07 154.623 162.904 153.354 163.269 152.187V152.187C164.014 149.805 165.159 147.567 166.656 145.571L168.473 143.149L164.394 142.809V142.809C161.24 143.23 158.552 145.305 157.348 148.25L156.236 150.967L151.418 145.68C150.052 144.18 149.404 142.162 149.641 140.147L149.846 138.399C149.891 138.017 149.506 137.729 149.153 137.881L146.907 138.843C145.105 139.616 143.028 139.378 141.447 138.219L139.833 137.035C139.255 136.611 138.943 135.913 139.014 135.199V135.199C139.32 132.091 140.93 129.259 143.444 127.407L145.953 125.558L139.325 127.088L133.121 133.291L165.754 165.924L177.957 178.126L180.03 180.2L181.56 181.73L183.26 183.429L185.945 186.115L191.004 191.174L197.84 198.01Z" fill="url(#paint4_linear_300_8170)"/>
<path d="M196.48 69.7625C197.211 69.0311 198.436 69.7557 198.147 70.7489L196.677 75.803C195.597 79.5173 192.505 82.299 188.698 82.983V82.983L184.789 83.8328L189.888 85.5324L191.456 86.2354C193.622 87.2062 195.359 88.934 196.341 91.0945V91.0945C197.009 92.5645 197.219 94.2014 196.945 95.7927L196.737 97.0002C196.647 97.52 195.999 97.7087 195.644 97.318L190.578 91.7337C190.549 91.7018 190.513 91.6769 190.472 91.6611V91.6611C188.744 90.9829 186.888 90.6952 185.036 90.8187L183.23 90.9391C182.913 90.9602 182.605 91.0489 182.326 91.1992L178.331 93.3505L181.943 96.1215C185.142 98.5755 187.793 101.671 189.725 105.21V105.21C191.459 108.384 191.83 112.126 190.754 115.58L190.159 117.491C189.561 119.411 188.085 120.93 186.184 121.584V121.584C184.606 122.126 182.907 122.216 181.28 121.843L175.611 120.544L176.614 117.463C178.486 111.707 174.715 105.654 168.723 104.798V104.798C167.744 104.658 166.774 105.107 166.247 105.944L162.362 112.115C161.71 113.15 161.545 114.418 161.909 115.585V115.585C162.654 117.967 163.799 120.205 165.297 122.201L167.113 124.623L163.034 124.963V124.963C159.88 124.543 157.192 122.467 155.988 119.522L154.876 116.805L150.059 122.093C148.692 123.592 148.044 125.61 148.281 127.625L148.571 130.094C148.579 130.156 148.517 130.203 148.459 130.18L145.979 129.177C145.087 128.817 144.093 128.799 143.189 129.128V129.128C141.671 129.68 140.367 130.697 139.461 132.034L139.117 132.542C139.086 132.588 139.062 132.639 139.047 132.692L138.475 134.736L133.206 133.206L164.394 101.849L176.597 89.6456L178.67 87.5719L180.2 86.0422L181.9 84.3426L184.585 81.6575L189.645 76.5977L196.48 69.7625Z" fill="url(#paint5_linear_300_8170)"/>
<path d="M198.35 197.5C199.081 198.231 198.356 199.456 197.363 199.167L192.309 197.697C188.595 196.617 185.813 193.525 185.129 189.718V189.718L184.279 185.809L182.58 190.908L181.877 192.476C180.906 194.642 179.178 196.378 177.018 197.36V197.36C175.548 198.029 173.911 198.239 172.319 197.965L171.112 197.757C170.592 197.667 170.403 197.018 170.794 196.664L176.378 191.597C176.41 191.568 176.435 191.532 176.451 191.492V191.492C177.129 189.764 177.417 187.908 177.293 186.055L177.173 184.25C177.152 183.933 177.063 183.625 176.913 183.346L174.762 179.35L171.991 182.963C169.537 186.162 166.441 188.812 162.902 190.745V190.745C159.728 192.478 155.986 192.85 152.532 191.774L150.621 191.179C148.702 190.581 147.182 189.105 146.529 187.204V187.204C145.986 185.626 145.896 183.927 146.269 182.3L147.568 176.631L150.649 177.633C156.405 179.506 162.458 175.734 163.314 169.742V169.742C163.454 168.763 163.005 167.794 162.168 167.267L155.997 163.381C154.962 162.73 153.694 162.565 152.527 162.929V162.929C150.145 163.674 147.907 164.819 145.911 166.316L143.489 168.133L143.149 164.054V164.054C143.569 160.9 145.645 158.212 148.59 157.008L151.307 155.896L146.019 151.078C144.52 149.712 142.502 149.064 140.487 149.301L138.739 149.506C138.357 149.551 138.069 149.166 138.221 148.813L139.183 146.567C139.956 144.765 139.718 142.689 138.559 141.107L137.375 139.493C136.951 138.915 136.253 138.603 135.539 138.674V138.674C132.431 138.98 129.599 140.59 127.747 143.104L125.898 145.613L127.428 138.985L133.631 132.781L166.264 165.414L178.466 177.617L180.54 179.69L182.07 181.22L183.769 182.92L186.455 185.605L191.514 190.665L198.35 197.5Z" fill="url(#paint6_linear_300_8170)"/>
<path d="M70.1024 196.14C69.371 196.871 70.0956 198.096 71.0888 197.807L76.1429 196.337C79.8572 195.257 82.6389 192.166 83.3229 188.358V188.358L84.1727 184.449L85.8723 189.548L86.5753 191.116C87.5461 193.282 89.2739 195.019 91.4344 196.001V196.001C92.9044 196.669 94.5413 196.879 96.1326 196.605L97.3401 196.397C97.8599 196.307 98.0486 195.659 97.6579 195.304L92.0736 190.238C92.0417 190.209 92.0168 190.173 92.0011 190.133V190.133C91.3228 188.405 91.0351 186.548 91.1586 184.696L91.279 182.89C91.3001 182.573 91.3888 182.265 91.5391 181.986L93.6904 177.991L96.4614 181.603C98.9154 184.802 102.011 187.453 105.55 189.385V189.385C108.724 191.119 112.466 191.49 115.92 190.414L117.831 189.819C119.75 189.221 121.27 187.745 121.923 185.844V185.844C122.466 184.266 122.556 182.567 122.183 180.94L120.884 175.271L117.803 176.274C112.047 178.146 105.994 174.375 105.138 168.383V168.383C104.998 167.404 105.447 166.434 106.284 165.907L112.455 162.022C113.489 161.37 114.758 161.205 115.925 161.57V161.57C118.307 162.314 120.545 163.459 122.541 164.957L124.963 166.773L125.303 162.694V162.694C124.882 159.54 122.807 156.853 119.862 155.648L117.145 154.536L122.432 149.719C123.932 148.352 125.95 147.704 127.965 147.941L130.434 148.231C130.496 148.239 130.543 148.177 130.52 148.119L129.517 145.639C129.157 144.747 129.139 143.753 129.468 142.849V142.849C130.02 141.332 131.037 140.027 132.374 139.121L132.882 138.777C132.928 138.746 132.978 138.722 133.032 138.707L135.076 138.135L133.546 132.866L102.188 164.054L89.9855 176.257L87.9118 178.331L86.3821 179.86L84.6825 181.56L81.9974 184.245L76.9376 189.305L70.1024 196.14Z" fill="url(#paint7_linear_300_8170)"/>
<defs>
<linearGradient id="paint0_linear_300_8170" x1="66.1995" y1="103.633" x2="133.674" y2="103.633" gradientUnits="userSpaceOnUse">
<stop stop-color="#EC585F"/>
<stop offset="1" stop-color="#F8B158"/>
</linearGradient>
<linearGradient id="paint1_linear_300_8170" x1="67.5591" y1="165.924" x2="133.589" y2="165.924" gradientUnits="userSpaceOnUse">
<stop stop-color="#EC585F"/>
<stop offset="1" stop-color="#F8B158"/>
</linearGradient>
<linearGradient id="paint2_linear_300_8170" x1="103.293" y1="66.5394" x2="103.293" y2="134.014" gradientUnits="userSpaceOnUse">
<stop stop-color="#EC585F"/>
<stop offset="1" stop-color="#F8B158"/>
</linearGradient>
<linearGradient id="paint3_linear_300_8170" x1="165.584" y1="67.899" x2="165.584" y2="133.929" gradientUnits="userSpaceOnUse">
<stop stop-color="#EC585F"/>
<stop offset="1" stop-color="#F8B158"/>
</linearGradient>
<linearGradient id="paint4_linear_300_8170" x1="200.595" y1="163.162" x2="133.121" y2="163.162" gradientUnits="userSpaceOnUse">
<stop stop-color="#EC585F"/>
<stop offset="1" stop-color="#F8B158"/>
</linearGradient>
<linearGradient id="paint5_linear_300_8170" x1="199.236" y1="100.871" x2="133.206" y2="100.871" gradientUnits="userSpaceOnUse">
<stop stop-color="#EC585F"/>
<stop offset="1" stop-color="#F8B158"/>
</linearGradient>
<linearGradient id="paint6_linear_300_8170" x1="163.502" y1="200.255" x2="163.502" y2="132.781" gradientUnits="userSpaceOnUse">
<stop stop-color="#EC585F"/>
<stop offset="1" stop-color="#F8B158"/>
</linearGradient>
<linearGradient id="paint7_linear_300_8170" x1="101.211" y1="198.896" x2="101.211" y2="132.866" gradientUnits="userSpaceOnUse">
<stop stop-color="#EC585F"/>
<stop offset="1" stop-color="#F8B158"/>
</linearGradient>
</defs>
<animateTransform attributeType="XML" attributeName="transform" type="scale" values="1;1.2;1" additive="sum" begin="0s" dur="1600ms" repeatCount="indefinite"/>
</svg>
